<svg width="48" height="48" viewBox="0 0 48 48" fill="none" xmlns="http://www.w3.org/2000/svg">
<path d="M18.8496 4.90038C19.0466 4.90015 19.2417 4.93885 19.4237 5.01427C19.6057 5.08968 19.771 5.20032 19.9102 5.33983L37.5107 22.9394C37.6501 23.0787 37.7606 23.244 37.836 23.426C37.9114 23.608 37.9502 23.803 37.9502 24C37.9502 24.197 37.9114 24.392 37.836 24.574C37.7606 24.756 37.6501 24.9213 37.5107 25.0605L19.9102 42.6606C19.7709 42.7999 19.6055 42.9104 19.4236 42.9858C19.2416 43.0611 19.0466 43.0999 18.8496 43.0999C18.6526 43.0999 18.4576 43.0611 18.2756 42.9858C18.0937 42.9104 17.9283 42.7999 17.7891 42.6606C17.6498 42.5214 17.5393 42.356 17.4639 42.1741C17.3886 41.9921 17.3498 41.7971 17.3498 41.6001C17.3498 41.4031 17.3886 41.2081 17.4639 41.0261C17.5393 40.8442 17.6498 40.6788 17.7891 40.5395L34.3291 24L17.7891 7.46093C17.5794 7.25115 17.4365 6.9839 17.3787 6.69296C17.3208 6.40201 17.3505 6.10045 17.464 5.82638C17.5775 5.55232 17.7698 5.31807 18.0164 5.15325C18.263 4.98842 18.553 4.90042 18.8496 4.90038L18.8496 4.90038Z" fill="#00693C"/>
</svg>
