<svg width="48" height="48" viewBox="0 0 48 48" fill="none" xmlns="http://www.w3.org/2000/svg">
<path d="M29.1504 43.0996C28.9534 43.0998 28.7583 43.0611 28.5763 42.9857C28.3943 42.9103 28.229 42.7997 28.0899 42.6602L10.4893 25.0605C10.3499 24.9213 10.2394 24.756 10.164 24.574C10.0886 24.392 10.0498 24.197 10.0498 24C10.0498 23.803 10.0886 23.608 10.164 23.426C10.2394 23.244 10.3499 23.0787 10.4893 22.9394L28.0898 5.33936C28.2291 5.20008 28.3945 5.0896 28.5764 5.01423C28.7584 4.93885 28.9534 4.90006 29.1504 4.90006C29.3474 4.90006 29.5424 4.93885 29.7244 5.01423C29.9063 5.0896 30.0717 5.20008 30.2109 5.33935C30.3502 5.47862 30.4607 5.64396 30.5361 5.82593C30.6114 6.0079 30.6502 6.20293 30.6502 6.3999C30.6502 6.59686 30.6114 6.79189 30.5361 6.97386C30.4607 7.15583 30.3502 7.32117 30.2109 7.46044L13.6709 24L30.2109 40.5391C30.4206 40.7488 30.5635 41.0161 30.6213 41.307C30.6792 41.598 30.6495 41.8995 30.536 42.1736C30.4225 42.4477 30.2302 42.6819 29.9836 42.8467C29.737 43.0116 29.447 43.0996 29.1504 43.0996L29.1504 43.0996Z" fill="#00693C"/>
</svg>
